<svg width="62" height="33" viewBox="0 0 62 33" fill="none" xmlns="http://www.w3.org/2000/svg">
<path d="M12.961 10.239H20.3619V12.1164H15.7345V13.5153H20.0226V15.3061H15.7345V17.0331H20.4996V19.0199H12.961V10.239ZM8.38775 0H53.7714C55.8416 0 57.7201 0.783761 59.0823 2.04598C60.4444 3.3082 61.2902 5.05344 61.2902 6.96727V26.0282C61.2902 27.942 60.4444 29.6827 59.0773 30.9495C57.7152 32.2117 55.8318 33 53.7664 33H8.38775C6.3224 33 4.439 32.2162 3.07685 30.9495C1.71471 29.6918 0.868896 27.9466 0.868896 26.0327V6.96727C0.868896 5.04888 1.71471 3.3082 3.07685 2.04598C4.439 0.783761 6.3224 0 8.38775 0ZM2.48675 23.449C2.76705 24.4242 3.32765 25.2991 4.08002 25.9963C5.18646 27.0215 6.71089 27.6595 8.39267 27.6595H53.7812C53.85 27.6595 53.914 27.6595 53.9828 27.6549L54.4008 27.6276C55.8318 27.4909 57.1251 26.894 58.0938 25.9963C58.8462 25.2991 59.4019 24.4242 59.6822 23.449V6.96727C59.6822 5.4681 59.0183 4.10108 57.9463 3.10771C56.8743 2.11433 55.404 1.49917 53.7812 1.49917H8.38775C6.76498 1.49917 5.28973 2.11433 4.22263 3.10771C3.15062 4.10108 2.48675 5.4681 2.48675 6.96727V23.449ZM21.8322 12.6541H24.1483V13.6885C24.4926 13.2647 24.8417 12.9594 25.1958 12.7817C25.5498 12.5994 25.9776 12.5083 26.4891 12.5083C27.1775 12.5083 27.7135 12.7088 28.102 13.1098C28.4905 13.5108 28.6823 14.1305 28.6823 14.9689V19.0153H26.1793V15.5157C26.1793 15.1147 26.1055 14.8322 25.9531 14.6682C25.8006 14.5041 25.5941 14.4176 25.3236 14.4176C25.0237 14.4176 24.7827 14.5315 24.5958 14.7548C24.409 14.978 24.3155 15.379 24.3155 15.9577V19.0153H21.8273V12.6541H21.8322ZM33.172 10.239V12.6541H34.5341V14.4449H33.172V16.6959C33.172 16.9648 33.2015 17.1471 33.2506 17.2336C33.3342 17.3703 33.4768 17.4341 33.6785 17.4341C33.8604 17.4341 34.1161 17.384 34.4505 17.2792L34.6325 18.9652C34.0178 19.0973 33.4424 19.1657 32.9113 19.1657C32.2917 19.1657 31.8344 19.0882 31.5443 18.9333C31.2541 18.7784 31.0378 18.5414 30.8951 18.2225C30.7575 17.9035 30.6837 17.3931 30.6837 16.6823V14.4449H29.769V12.6541H30.6837V11.4876L33.172 10.239ZM42.9234 16.4408H37.9321C37.9763 16.8326 38.0845 17.1243 38.2566 17.3157C38.4976 17.5936 38.8123 17.7303 39.2008 17.7303C39.4467 17.7303 39.6778 17.6711 39.8991 17.5526C40.0368 17.4751 40.1794 17.343 40.3367 17.1562L42.7857 17.3749C42.4119 18.0128 41.9595 18.4731 41.4284 18.7465C40.8973 19.0244 40.14 19.1611 39.1467 19.1611C38.2861 19.1611 37.6125 19.0427 37.1158 18.8057C36.624 18.5688 36.2159 18.1906 35.8913 17.6756C35.5668 17.1562 35.4045 16.5501 35.4045 15.8484C35.4045 14.855 35.729 14.0485 36.3782 13.4333C37.0273 12.8181 37.9272 12.5083 39.068 12.5083C39.9974 12.5083 40.7301 12.6495 41.2662 12.9229C41.8022 13.2009 42.2152 13.5973 42.4955 14.1214C42.7758 14.6454 42.9184 15.3244 42.9184 16.1674V16.4408H42.9234ZM40.3958 15.2742C40.3466 14.8003 40.2187 14.4631 40.0073 14.2581C39.7958 14.053 39.5204 13.9528 39.1762 13.9528C38.7779 13.9528 38.4632 14.1077 38.2271 14.4176C38.0747 14.6089 37.9813 14.896 37.937 15.2788H40.3958V15.2742ZM44.0888 12.6541H46.4197V13.693C46.6459 13.2419 46.877 12.9321 47.1131 12.7635C47.354 12.5949 47.6441 12.5083 47.9982 12.5083C48.367 12.5083 48.7703 12.6222 49.203 12.8455L48.431 14.5771C48.1359 14.4586 47.9048 14.3993 47.7327 14.3993C47.4081 14.3993 47.1524 14.5315 46.9754 14.7958C46.7197 15.1694 46.5918 15.8621 46.5918 16.8828V19.0199H44.0888V12.6541Z" fill="#F5F5F5"/>
</svg>
