<svg width="500" height="145" viewBox="0 0 500 145" fill="none" xmlns="http://www.w3.org/2000/svg">
<g clip-path="url(#clip0)">
<path d="M482.471 17.2034C487.289 17.2034 491.681 19.142 494.853 22.2591C498.027 25.3762 500 29.6906 500 34.4232V113.015C500 117.748 498.027 122.062 494.853 125.179C491.681 128.296 487.289 130.235 482.471 130.235H279.784C274.966 130.235 270.574 128.296 267.402 125.179C264.228 122.081 262.255 117.767 262.255 113.034V34.4232C262.255 29.6906 264.228 25.3762 267.402 22.2591C270.574 19.142 274.966 17.2034 279.784 17.2034C396.914 17.2034 449.213 17.2034 482.471 17.2034ZM440.718 24.5019H279.784C276.998 24.5019 274.483 25.6232 272.645 27.4288C270.806 29.2155 269.684 31.7053 269.684 34.4232V113.015C269.684 115.752 270.826 118.223 272.664 120.029C274.502 121.834 277.017 122.956 279.804 122.956H482.471C485.257 122.956 487.772 121.834 489.61 120.029C491.449 118.223 492.591 115.752 492.591 113.015V34.4232C492.591 31.6864 491.449 29.2155 489.61 27.4099C487.772 25.6043 485.257 24.4829 482.471 24.4829H456.855C452.365 24.5019 445.208 24.5019 440.718 24.5019ZM285.975 35.6968H300.971C303.02 35.6968 304.684 37.3313 304.684 39.3461V51.7763C304.684 53.791 303.02 55.4256 300.971 55.4256H285.975C283.924 55.4256 282.26 53.791 282.26 51.7763V39.3461C282.26 37.3313 283.924 35.6968 285.975 35.6968ZM315.674 35.6968H330.669C332.721 35.6968 334.382 37.3313 334.382 39.3461V51.7763C334.382 53.791 332.721 55.4256 330.669 55.4256H315.674C313.623 55.4256 311.958 53.791 311.958 51.7763V39.3461C311.958 37.3313 313.623 35.6968 315.674 35.6968ZM345.392 35.6968H360.387C362.439 35.6968 364.1 37.3313 364.1 39.3461V51.7763C364.1 53.791 362.439 55.4256 360.387 55.4256H345.392C343.341 55.4256 341.676 53.791 341.676 51.7763V39.3461C341.676 37.3313 343.341 35.6968 345.392 35.6968ZM375.091 35.6968H390.086C392.137 35.6968 393.799 37.3313 393.799 39.3461V51.7763C393.799 53.791 392.137 55.4256 390.086 55.4256H375.091C373.039 55.4256 371.375 53.791 371.375 51.7763V39.3461C371.395 37.3313 373.039 35.6968 375.091 35.6968ZM404.809 35.6968H419.804C421.855 35.6968 423.517 37.3313 423.517 39.3461V51.7763C423.517 53.791 421.855 55.4256 419.804 55.4256H404.809C402.757 55.4256 401.093 53.791 401.093 51.7763V39.3461C401.093 37.3313 402.757 35.6968 404.809 35.6968ZM434.527 35.6968H449.522C451.574 35.6968 453.235 37.3313 453.235 39.3461V51.7763C453.235 53.791 451.574 55.4256 449.522 55.4256H434.527C432.475 55.4256 430.811 53.791 430.811 51.7763V39.3461C430.811 37.3313 432.475 35.6968 434.527 35.6968ZM464.226 35.6968H479.221C481.272 35.6968 482.936 37.3313 482.936 39.3461V51.7763C482.936 53.791 481.272 55.4256 479.221 55.4256H464.226C462.174 55.4256 460.512 53.791 460.512 51.7763V39.3461C460.512 37.3313 462.174 35.6968 464.226 35.6968ZM464.226 62.5341H479.221C481.272 62.5341 482.936 64.1875 482.936 66.2212V105.527C482.936 107.56 481.272 109.214 479.221 109.214H464.226C462.174 109.214 460.512 107.56 460.512 105.527V66.2212C460.512 64.1875 462.174 62.5341 464.226 62.5341ZM285.975 62.857H300.971C303.02 62.857 304.684 64.4915 304.684 66.5063V78.9365C304.684 80.9513 303.02 82.5858 300.971 82.5858H285.975C283.924 82.5858 282.26 80.9513 282.26 78.9365V66.5063C282.26 64.4915 283.924 62.857 285.975 62.857ZM315.674 62.857H330.669C332.721 62.857 334.382 64.4915 334.382 66.5063V78.9365C334.382 80.9513 332.721 82.5858 330.669 82.5858H315.674C313.623 82.5858 311.958 80.9513 311.958 78.9365V66.5063C311.958 64.4915 313.623 62.857 315.674 62.857ZM345.392 62.857H360.387C362.439 62.857 364.1 64.4915 364.1 66.5063V78.9365C364.1 80.9513 362.439 82.5858 360.387 82.5858H345.392C343.341 82.5858 341.676 80.9513 341.676 78.9365V66.5063C341.676 64.4915 343.341 62.857 345.392 62.857ZM375.091 62.857H390.086C392.137 62.857 393.799 64.4915 393.799 66.5063V78.9365C393.799 80.9513 392.137 82.5858 390.086 82.5858H375.091C373.039 82.5858 371.375 80.9513 371.375 78.9365V66.5063C371.395 64.4915 373.039 62.857 375.091 62.857ZM404.809 62.857H419.804C421.855 62.857 423.517 64.4915 423.517 66.5063V78.9365C423.517 80.9513 421.855 82.5858 419.804 82.5858H404.809C402.757 82.5858 401.093 80.9513 401.093 78.9365V66.5063C401.093 64.4915 402.757 62.857 404.809 62.857ZM434.527 62.857H449.522C451.574 62.857 453.235 64.4915 453.235 66.5063V78.9365C453.235 80.9513 451.574 82.5858 449.522 82.5858H434.527C432.475 82.5858 430.811 80.9513 430.811 78.9365V66.5063C430.811 64.4915 432.475 62.857 434.527 62.857ZM285.975 89.7324H300.971C303.02 89.7324 304.684 91.3669 304.684 93.3814V105.812C304.684 107.826 303.02 109.461 300.971 109.461H285.975C283.924 109.461 282.26 107.826 282.26 105.812V93.3814C282.26 91.3669 283.924 89.7324 285.975 89.7324ZM315.674 89.7324H390.105C392.137 89.7324 393.782 91.3669 393.782 93.3814V105.812C393.782 107.826 392.137 109.461 390.105 109.461H315.674C313.642 109.461 311.998 107.826 311.998 105.812V93.3814C311.998 91.3669 313.642 89.7324 315.674 89.7324ZM404.809 89.7324H419.804C421.855 89.7324 423.517 91.3669 423.517 93.3814V105.812C423.517 107.826 421.855 109.461 419.804 109.461H404.809C402.757 109.461 401.093 107.826 401.093 105.812V93.3814C401.093 91.3669 402.757 89.7324 404.809 89.7324ZM434.527 89.7324H449.522C451.574 89.7324 453.235 91.3669 453.235 93.3814V105.812C453.235 107.826 451.574 109.461 449.522 109.461H434.527C432.475 109.461 430.811 107.826 430.811 105.812V93.3814C430.811 91.3669 432.475 89.7324 434.527 89.7324Z" fill="#016BF2"/>
<path d="M482.843 20.8898H279.412C271.967 20.8898 265.931 26.9416 265.931 34.4068V113.051C265.931 120.516 271.967 126.568 279.412 126.568H482.843C490.288 126.568 496.324 120.516 496.324 113.051V34.4068C496.324 26.9416 490.288 20.8898 482.843 20.8898Z" stroke="#FF461A" stroke-width="10"/>
<path d="M17.6471 32.9323H73.7648L71.7648 44.6109H29.2942L24.8236 69.8556H61.7648L59.6471 81.5343H22.8236L16.8236 115.509H3.17651L17.6471 32.9323ZM66.5846 104.302L68.9375 90.6177L80.5846 80.7085H111.408L112.82 71.979L109.173 67.6143H90.8199L85.7611 71.979L85.0552 75.7539H71.9964L73.4081 68.2041L86.7022 56.7614H115.879L126.349 69.5017L118.349 115.509H106.232L107.761 106.425L96.8199 115.509H75.7611L66.5846 104.302ZM97.4081 105.01L108.82 95.5722L109.643 90.6177H85.7611L81.4081 94.2746L80.114 101.471L83.0552 105.01H97.4081ZM132.277 103.83L133.336 97.3417H146.512L145.806 101.117L148.512 104.538H168.394L172.277 101.117L173.336 94.7465L170.63 91.3255H145.924L136.747 80.1187L139.218 66.5526L150.63 56.7614H180.394L189.924 68.558L188.747 74.9282H175.689L176.277 71.1533L173.571 67.7322H155.336L151.453 71.1533L150.512 77.0516L153.218 80.4726H177.689L187.1 91.7973L184.63 105.599L173.1 115.509H141.806L132.277 103.83ZM202.667 103.122L208.903 68.0861H198.315L200.315 56.7614H211.138L214.432 37.6509H227.491L224.197 56.7614H242.197L240.197 68.0861H222.197L216.55 99.5831L220.432 104.184H233.844L231.844 115.509H213.02L202.667 103.122Z" fill="#171F29"/>
</g>
<defs>
<clipPath id="clip0">
<rect width="500" height="145" fill="white"/>
</clipPath>
</defs>
</svg>
