<svg width="203" height="59" viewBox="0 0 203 59" fill="none" xmlns="http://www.w3.org/2000/svg">
<path d="M195.848 7C197.814 7 199.606 7.78884 200.9 9.05716C202.195 10.3255 203 12.081 203 14.0067V45.9855C203 47.9112 202.195 49.6668 200.9 50.9351C199.606 52.2034 197.814 52.9923 195.848 52.9923H113.152C111.186 52.9923 109.394 52.2034 108.1 50.9351C106.805 49.6745 106 47.919 106 45.9933V14.0067C106 12.081 106.805 10.3255 108.1 9.05716C109.394 7.78884 111.186 7 113.152 7C160.941 7 182.279 7 195.848 7ZM178.813 9.96974H113.152C112.015 9.96974 110.989 10.426 110.239 11.1607C109.489 11.8877 109.031 12.9008 109.031 14.0067V45.9855C109.031 47.0992 109.497 48.1046 110.247 48.8393C110.997 49.574 112.023 50.0303 113.16 50.0303H195.848C196.985 50.0303 198.011 49.574 198.761 48.8393C199.511 48.1046 199.977 47.0992 199.977 45.9855V14.0067C199.977 12.8931 199.511 11.8877 198.761 11.153C198.011 10.4183 196.985 9.962 195.848 9.962H185.397C183.565 9.96974 180.645 9.96974 178.813 9.96974ZM115.678 14.5249H121.796C122.632 14.5249 123.311 15.19 123.311 16.0098V21.0676C123.311 21.8874 122.632 22.5525 121.796 22.5525H115.678C114.841 22.5525 114.162 21.8874 114.162 21.0676V16.0098C114.162 15.19 114.841 14.5249 115.678 14.5249ZM127.795 14.5249H133.913C134.75 14.5249 135.428 15.19 135.428 16.0098V21.0676C135.428 21.8874 134.75 22.5525 133.913 22.5525H127.795C126.958 22.5525 126.279 21.8874 126.279 21.0676V16.0098C126.279 15.19 126.958 14.5249 127.795 14.5249ZM139.92 14.5249H146.038C146.875 14.5249 147.553 15.19 147.553 16.0098V21.0676C147.553 21.8874 146.875 22.5525 146.038 22.5525H139.92C139.083 22.5525 138.404 21.8874 138.404 21.0676V16.0098C138.404 15.19 139.083 14.5249 139.92 14.5249ZM152.037 14.5249H158.155C158.992 14.5249 159.67 15.19 159.67 16.0098V21.0676C159.67 21.8874 158.992 22.5525 158.155 22.5525H152.037C151.2 22.5525 150.521 21.8874 150.521 21.0676V16.0098C150.529 15.19 151.2 14.5249 152.037 14.5249ZM164.162 14.5249H170.28C171.117 14.5249 171.795 15.19 171.795 16.0098V21.0676C171.795 21.8874 171.117 22.5525 170.28 22.5525H164.162C163.325 22.5525 162.646 21.8874 162.646 21.0676V16.0098C162.646 15.19 163.325 14.5249 164.162 14.5249ZM176.287 14.5249H182.405C183.242 14.5249 183.92 15.19 183.92 16.0098V21.0676C183.92 21.8874 183.242 22.5525 182.405 22.5525H176.287C175.45 22.5525 174.771 21.8874 174.771 21.0676V16.0098C174.771 15.19 175.45 14.5249 176.287 14.5249ZM188.404 14.5249H194.522C195.359 14.5249 196.038 15.19 196.038 16.0098V21.0676C196.038 21.8874 195.359 22.5525 194.522 22.5525H188.404C187.567 22.5525 186.889 21.8874 186.889 21.0676V16.0098C186.889 15.19 187.567 14.5249 188.404 14.5249ZM188.404 25.4449H194.522C195.359 25.4449 196.038 26.1177 196.038 26.9452V42.9385C196.038 43.766 195.359 44.4388 194.522 44.4388H188.404C187.567 44.4388 186.889 43.766 186.889 42.9385V26.9452C186.889 26.1177 187.567 25.4449 188.404 25.4449ZM115.678 25.5763H121.796C122.632 25.5763 123.311 26.2414 123.311 27.0612V32.119C123.311 32.9388 122.632 33.6039 121.796 33.6039H115.678C114.841 33.6039 114.162 32.9388 114.162 32.119V27.0612C114.162 26.2414 114.841 25.5763 115.678 25.5763ZM127.795 25.5763H133.913C134.75 25.5763 135.428 26.2414 135.428 27.0612V32.119C135.428 32.9388 134.75 33.6039 133.913 33.6039H127.795C126.958 33.6039 126.279 32.9388 126.279 32.119V27.0612C126.279 26.2414 126.958 25.5763 127.795 25.5763ZM139.92 25.5763H146.038C146.875 25.5763 147.553 26.2414 147.553 27.0612V32.119C147.553 32.9388 146.875 33.6039 146.038 33.6039H139.92C139.083 33.6039 138.404 32.9388 138.404 32.119V27.0612C138.404 26.2414 139.083 25.5763 139.92 25.5763ZM152.037 25.5763H158.155C158.992 25.5763 159.67 26.2414 159.67 27.0612V32.119C159.67 32.9388 158.992 33.6039 158.155 33.6039H152.037C151.2 33.6039 150.521 32.9388 150.521 32.119V27.0612C150.529 26.2414 151.2 25.5763 152.037 25.5763ZM164.162 25.5763H170.28C171.117 25.5763 171.795 26.2414 171.795 27.0612V32.119C171.795 32.9388 171.117 33.6039 170.28 33.6039H164.162C163.325 33.6039 162.646 32.9388 162.646 32.119V27.0612C162.646 26.2414 163.325 25.5763 164.162 25.5763ZM176.287 25.5763H182.405C183.242 25.5763 183.92 26.2414 183.92 27.0612V32.119C183.92 32.9388 183.242 33.6039 182.405 33.6039H176.287C175.45 33.6039 174.771 32.9388 174.771 32.119V27.0612C174.771 26.2414 175.45 25.5763 176.287 25.5763ZM115.678 36.5118H121.796C122.632 36.5118 123.311 37.1769 123.311 37.9966V43.0545C123.311 43.8742 122.632 44.5393 121.796 44.5393H115.678C114.841 44.5393 114.162 43.8742 114.162 43.0545V37.9966C114.162 37.1769 114.841 36.5118 115.678 36.5118ZM127.795 36.5118H158.163C158.992 36.5118 159.663 37.1769 159.663 37.9966V43.0545C159.663 43.8742 158.992 44.5393 158.163 44.5393H127.795C126.966 44.5393 126.295 43.8742 126.295 43.0545V37.9966C126.295 37.1769 126.966 36.5118 127.795 36.5118ZM164.162 36.5118H170.28C171.117 36.5118 171.795 37.1769 171.795 37.9966V43.0545C171.795 43.8742 171.117 44.5393 170.28 44.5393H164.162C163.325 44.5393 162.646 43.8742 162.646 43.0545V37.9966C162.646 37.1769 163.325 36.5118 164.162 36.5118ZM176.287 36.5118H182.405C183.242 36.5118 183.92 37.1769 183.92 37.9966V43.0545C183.92 43.8742 183.242 44.5393 182.405 44.5393H176.287C175.45 44.5393 174.771 43.8742 174.771 43.0545V37.9966C174.771 37.1769 175.45 36.5118 176.287 36.5118Z" fill="#016BF2"/>
<rect x="107.5" y="8.5" width="94" height="43" rx="5.5" stroke="#FF461A" stroke-width="3"/>
<path d="M7.2 13.4H30.096L29.28 18.152H11.952L10.128 28.424H25.2L24.336 33.176H9.312L6.864 47H1.296L7.2 13.4ZM27.1665 42.44L28.1265 36.872L32.8785 32.84H45.4545L46.0305 29.288L44.5425 27.512H37.0545L34.9905 29.288L34.7025 30.824H29.3745L29.9505 27.752L35.3745 23.096H47.2785L51.5505 28.28L48.2865 47H43.3425L43.9665 43.304L39.5025 47H30.9105L27.1665 42.44ZM39.7425 42.728L44.3985 38.888L44.7345 36.872H34.9905L33.2145 38.36L32.6865 41.288L33.8865 42.728H39.7425ZM53.9689 42.248L54.4009 39.608H59.7769L59.4889 41.144L60.5929 42.536H68.7049L70.2889 41.144L70.7209 38.552L69.6169 37.16H59.5369L55.7929 32.6L56.8009 27.08L61.4569 23.096H73.6009L77.4889 27.896L77.0089 30.488H71.6809L71.9209 28.952L70.8169 27.56H63.3769L61.7929 28.952L61.4089 31.352L62.5129 32.744H72.4969L76.3369 37.352L75.3289 42.968L70.6249 47H57.8569L53.9689 42.248ZM82.6883 41.96L85.2323 27.704H80.9123L81.7283 23.096H86.1443L87.4883 15.32H92.8163L91.4723 23.096H98.8163L98.0003 27.704H90.6562L88.3523 40.52L89.9363 42.392H95.4083L94.5923 47H86.9123L82.6883 41.96Z" fill="#F5F5F5"/>
</svg>
