<svg width="62" height="34" viewBox="0 0 62 34" fill="none" xmlns="http://www.w3.org/2000/svg">
<g clip-path="url(#clip0)">
<path fill-rule="evenodd" clip-rule="evenodd" d="M6.4796 0H55.4825C57.0512 0 58.4772 0.796001 59.5148 2.07203C60.5524 3.35414 61.1966 5.12235 61.1966 7.05463V26.3592C61.1966 28.2914 60.5524 30.0597 59.5148 31.3357C58.4772 32.6178 57.0512 33.4138 55.4874 33.4138H6.4796C4.91584 33.4138 3.48485 32.6178 2.44725 31.3357C1.41458 30.0597 0.770386 28.2975 0.770386 26.3531V7.05463C0.770386 5.1102 1.41458 3.34806 2.44725 2.07203C3.47993 0.796001 4.91092 0 6.4796 0ZM15.1983 16.315L17.1948 16.1509C17.2391 16.5702 17.3276 16.8983 17.4604 17.1171C17.6767 17.4756 17.9865 17.6578 18.3898 17.6578C18.6898 17.6578 18.9209 17.5667 19.0832 17.3844C19.2454 17.2021 19.329 16.9894 19.329 16.7464C19.329 16.5155 19.2553 16.3089 19.0979 16.1266C18.9455 15.9443 18.5865 15.7742 18.0259 15.6101C17.1063 15.3428 16.4474 14.9843 16.0589 14.5346C15.6655 14.085 15.4639 13.5199 15.4639 12.8211C15.4639 12.3654 15.5671 11.9339 15.7688 11.5329C15.9704 11.1258 16.2753 10.8098 16.6834 10.5728C17.0916 10.3419 17.6472 10.2265 18.3554 10.2265C19.2258 10.2265 19.8847 10.4392 20.342 10.8645C20.7994 11.2838 21.0698 11.9582 21.1534 12.8818L19.1766 13.0337C19.1225 12.6327 19.0143 12.335 18.8471 12.1527C18.6799 11.9704 18.4439 11.8792 18.1488 11.8792C17.903 11.8792 17.721 11.9461 17.5981 12.0798C17.4751 12.2134 17.4112 12.3775 17.4112 12.5719C17.4112 12.7117 17.4604 12.8393 17.5636 12.9548C17.662 13.0702 17.8931 13.1796 18.2668 13.2829C19.1864 13.5442 19.8404 13.8054 20.2388 14.0667C20.6371 14.3341 20.9272 14.6561 21.1042 15.0511C21.2862 15.44 21.3747 15.8775 21.3747 16.3636C21.3747 16.9348 21.2567 17.4573 21.0157 17.9374C20.7748 18.4174 20.4404 18.782 20.0027 19.0311C19.57 19.2802 19.0241 19.4018 18.3701 19.4018C17.2145 19.4018 16.413 19.1101 15.9704 18.5268C15.513 17.9495 15.2573 17.2082 15.1983 16.315ZM22.3041 21.6986V12.8089H24.0744V13.7568C24.3203 13.3558 24.5416 13.0824 24.7481 12.9426C25.0235 12.7542 25.3284 12.657 25.6628 12.657C26.3217 12.657 26.8282 12.9851 27.1921 13.6475C27.5511 14.3098 27.733 15.124 27.733 16.0962C27.733 17.1717 27.5363 17.986 27.1429 18.5511C26.7495 19.1162 26.2529 19.3957 25.6529 19.3957C25.3628 19.3957 25.0973 19.3288 24.8563 19.2012C24.6153 19.0736 24.4039 18.8792 24.2121 18.624V21.6865H22.3041V21.6986ZM24.1974 16.0537C24.1974 16.5641 24.2809 16.9469 24.4432 17.196C24.6055 17.4452 24.812 17.5667 25.0628 17.5667C25.2792 17.5667 25.4661 17.4512 25.6136 17.2082C25.7611 16.9712 25.8349 16.5641 25.8349 15.999C25.8349 15.4764 25.7562 15.0876 25.6038 14.8445C25.4464 14.5954 25.2595 14.4738 25.0382 14.4738C24.7973 14.4738 24.6006 14.5954 24.4383 14.8445C24.2809 15.0936 24.1974 15.4947 24.1974 16.0537ZM30.359 14.8992L28.5543 14.6501C28.6231 14.2369 28.7215 13.9087 28.8493 13.6778C28.9772 13.4409 29.1591 13.2343 29.405 13.0641C29.5771 12.9365 29.8131 12.8393 30.118 12.7725C30.418 12.7056 30.7475 12.6692 31.1015 12.6692C31.667 12.6692 32.1194 12.7117 32.4637 12.7907C32.8079 12.8758 33.0931 13.0459 33.3193 13.3072C33.4816 13.4895 33.6094 13.7508 33.698 14.0789C33.7914 14.4131 33.8356 14.729 33.8356 15.0329V17.8766C33.8356 18.1804 33.8504 18.4174 33.8799 18.5875C33.9094 18.7577 33.9733 18.9764 34.0717 19.2438H32.3063C32.2375 19.0797 32.1883 18.9521 32.1686 18.867C32.1489 18.782 32.1244 18.6483 32.1047 18.4599C31.8588 18.7698 31.6129 18.9886 31.3671 19.1222C31.0327 19.2985 30.6442 19.3896 30.2016 19.3896C29.6164 19.3896 29.1689 19.2134 28.8641 18.8549C28.5592 18.4964 28.4067 18.0589 28.4067 17.5363C28.4067 17.0441 28.5149 16.6431 28.7362 16.3271C28.9575 16.0112 29.3607 15.7742 29.9508 15.6223C30.6589 15.4339 31.1163 15.3063 31.3277 15.2273C31.5392 15.1544 31.7605 15.0572 31.9965 14.9356C31.9965 14.6318 31.9473 14.4192 31.8539 14.2976C31.7605 14.1761 31.5933 14.1153 31.3523 14.1153C31.0425 14.1153 30.8114 14.1822 30.6589 14.3098C30.5262 14.4252 30.4327 14.6136 30.359 14.8992ZM31.9916 16.1874C31.731 16.3089 31.4605 16.4183 31.1802 16.5094C30.7966 16.6431 30.5557 16.7768 30.4524 16.9044C30.3442 17.0381 30.295 17.19 30.295 17.3662C30.295 17.5606 30.3491 17.7247 30.4524 17.8462C30.5557 17.9677 30.7081 18.0346 30.9097 18.0346C31.1212 18.0346 31.3179 17.9677 31.4998 17.8341C31.6818 17.7004 31.8096 17.5363 31.8834 17.3419C31.9572 17.1474 31.9965 16.8922 31.9965 16.5823V16.1874H31.9916ZM38.64 16.7342L40.4349 16.9955C40.3366 17.4877 40.1743 17.907 39.9481 18.2716C39.7219 18.6301 39.4318 18.9096 39.0826 19.1101C38.7335 19.3106 38.286 19.4078 37.7451 19.4078C37.2238 19.4078 36.7861 19.341 36.437 19.2195C36.0928 19.0919 35.7928 18.8853 35.542 18.5997C35.2912 18.3141 35.0945 17.9799 34.9519 17.5971C34.8093 17.2143 34.7405 16.7039 34.7405 16.0658C34.7405 15.4035 34.829 14.8506 35.0011 14.4131C35.129 14.091 35.3011 13.7994 35.5224 13.5442C35.7436 13.289 35.9649 13.0945 36.201 12.973C36.5698 12.7725 37.0419 12.6752 37.6172 12.6752C38.4237 12.6752 39.0334 12.8636 39.4564 13.2403C39.8793 13.6171 40.1743 14.1639 40.3464 14.887L38.5712 15.1969C38.5171 14.9235 38.4138 14.7169 38.2663 14.5771C38.1188 14.4374 37.9221 14.3705 37.6713 14.3705C37.3615 14.3705 37.1058 14.5164 36.914 14.808C36.7222 15.0997 36.6239 15.5433 36.6239 16.1388C36.6239 16.6674 36.7222 17.0684 36.914 17.3419C37.1058 17.6153 37.3467 17.7551 37.6467 17.7551C37.8926 17.7551 38.104 17.67 38.2712 17.5059C38.4286 17.3297 38.5564 17.0745 38.64 16.7342ZM46.7687 16.6492H42.9822C43.0166 17.0441 43.1002 17.3419 43.2281 17.5363C43.41 17.8158 43.651 17.9556 43.9411 17.9556C44.128 17.9556 44.305 17.8948 44.4722 17.7733C44.5755 17.6943 44.6837 17.5606 44.8017 17.3723L46.6605 17.5971C46.3753 18.2412 46.031 18.709 45.6278 18.9886C45.2246 19.2681 44.6492 19.4078 43.8969 19.4078C43.2428 19.4078 42.7314 19.2863 42.3577 19.0432C41.9839 18.8063 41.6741 18.4235 41.4283 17.8948C41.1824 17.3723 41.0595 16.7525 41.0595 16.0476C41.0595 15.0389 41.3053 14.2247 41.802 13.5988C42.2937 12.9791 42.9773 12.6631 43.8477 12.6631C44.5558 12.6631 45.1066 12.8028 45.5196 13.0824C45.9278 13.3619 46.2376 13.7629 46.454 14.2976C46.6654 14.8263 46.7736 15.519 46.7736 16.3697V16.6492H46.7687ZM44.8459 15.4704C44.8115 14.9903 44.7082 14.6501 44.5509 14.4374C44.3886 14.2308 44.1821 14.1275 43.9214 14.1275C43.6215 14.1275 43.3805 14.2855 43.1986 14.5954C43.0855 14.7898 43.0117 15.0815 42.9822 15.4643H44.8459V15.4704ZM1.99976 23.7403C2.21121 24.7307 2.63412 25.6178 3.20455 26.3227C4.04544 27.3618 5.20597 28.0058 6.4796 28.0058H55.4874C55.5366 28.0058 55.5907 28.0059 55.6398 27.9998L55.9546 27.9755C57.0413 27.8418 58.0248 27.2342 58.7625 26.3227C59.3329 25.6178 59.7558 24.7307 59.9672 23.7463V7.05463C59.9672 5.54162 59.4607 4.15014 58.6493 3.14754C57.838 2.14495 56.7168 1.51908 55.4874 1.51908H6.4796C5.25023 1.51908 4.12904 2.14495 3.31765 3.14754C2.50626 4.15014 1.99976 5.53554 1.99976 7.05463V23.7403Z" fill="#F5F5F5"/>
</g>
<defs>
<clipPath id="clip0">
<rect width="60.4262" height="33.4138" fill="white" transform="translate(0.770386)"/>
</clipPath>
</defs>
</svg>
